<svg height="512" viewBox="0 0 16 16" width="512" xmlns="http://www.w3.org/2000/svg" xmlns:xlink="http://www.w3.org/1999/xlink"><defs><path id="path-1" d="m.902369.195262c.195262.195262.195262.511845 0 .707107s-.511845.195262-.707107 0c-.195262-.195262-.195262-.511845 0-.707107.195262-.195262.511845-.195262.707107 0"/></defs><path d="m16 4h-2-4.5-6.5v-1c0-.55127.44873-1 1-1s1 .44873 1 1h2c0-1.6543-1.3457-3-3-3s-3 1.3457-3 3v1h-1v2h1v1c0 1.47382.810242 2.74963 2 3.44354v1.55646h2v-1h5v1h2v-1.14203c1.72028-.447266 3-1.99969 3-3.85797v-1h1zm-10 6h-1c-1.65686 0-3-1.34314-3-3v-1h1v1c0 1.65686 1.34314 3 3 3z" transform="translate(0 2)"/><use transform="translate(8.951 4.951)" xlink:href="#path-1"/><use transform="translate(13.951 2.951)" xlink:href="#path-1"/><path d="m1.80474.390524c.390524.390524.390524 1.02369 0 1.41421-.390524.390524-1.02369.390524-1.41421 0-.390524-.390524-.390524-1.02369 0-1.41421.390524-.390524 1.02369-.390524 1.41421 0" transform="translate(10.902 2.902)"/></svg>