<svg width="295.9959999999999" height="295.9959999999999" xmlns="http://www.w3.org/2000/svg">

 <g>
  <title>background</title>
  <rect fill="none" id="canvas_background" height="402" width="582" y="-1" x="-1"/>
 </g>
 <g>
  <title>Layer 1</title>
  <path fill="#737373" id="svg_2" d="m147.998001,0c-81.606003,0 -147.998001,66.391998 -147.998001,147.998001s66.391998,147.998001 147.998001,147.998001s147.998001,-66.391998 147.998001,-147.998001s-66.391006,-147.998001 -147.998001,-147.998001zm0,279.996002c-36.256004,0 -69.142998,-14.696014 -93.021999,-38.440002c-9.536003,-9.481995 -17.631001,-20.410004 -23.934002,-32.419983c-9.6,-18.289017 -15.042,-39.08902 -15.042,-61.138016c0,-72.784004 59.213997,-131.998001 131.998001,-131.998001c34.522995,0 65.987,13.327999 89.533005,35.102001c12.207993,11.287998 22.289001,24.843998 29.557983,39.995998c8.27002,17.238998 12.907013,36.538002 12.907013,56.900002c0,72.783997 -59.214005,131.998001 -131.998001,131.998001z"/>
  <circle fill="#737373" id="svg_3" r="16" cy="114.998" cx="99.666"/>
  <circle fill="#737373" id="svg_4" r="16" cy="114.998" cx="198.666"/>
  <path fill="#737373" id="svg_5" d="m147.714996,229.994995c30.95401,0 60.619003,-15.830002 77.603989,-42.112991l-13.438995,-8.684006c-15.597,24.134995 -44.126007,37.604004 -72.692993,34.307999c-22.262009,-2.567001 -42.849007,-15.39299 -55.072006,-34.307999l-13.438004,8.684006c14.790001,22.888992 39.716003,38.408997 66.67601,41.518997c3.460999,0.399002 6.917007,0.593994 10.362,0.593994z"/>
 </g>
</svg>