<svg width="32.001" height="32.001" xmlns="http://www.w3.org/2000/svg">

 <g>
  <title>background</title>
  <rect fill="none" id="canvas_background" height="402" width="582" y="-1" x="-1"/>
 </g>
 <g>
  <title>Layer 1</title>
  <path fill="#737373" d="m29.364,4.137c-3.514,-3.516 -9.213001,-3.516 -12.727001,0l-14.589999,14.417001c-2.729,2.729 -2.729,7.171 0,9.9s7.17,2.729 9.898,0l14.59,-14.418c1.953001,-1.953 1.953001,-5.118 0,-7.071c-1.952999,-1.952 -5.118999,-1.952 -7.07,0l-10.968,10.968c-0.391,0.392 -0.391,1.022999 0,1.414999c0.391,0.391001 1.023001,0.391001 1.414001,0l10.968999,-10.969c1.17,-1.169 3.072001,-1.169 4.242001,0c1.17,1.17 1.17,3.073 0,4.243l-14.59,14.417c-1.952999,1.953001 -5.117,1.953001 -7.07,0c-1.953,-1.952 -1.953,-5.118 0,-7.07l14.447001,-14.277c2.733999,-2.734 7.167999,-2.734 9.897999,0c2.736,2.735 2.736,7.165 0.002001,9.899l-10.826,10.827c-0.393,0.392 -0.393,1.023001 0,1.414001c0.391001,0.392 1.023001,0.392 1.414,0l10.967001,-10.968c3.516001,-3.514 3.516001,-9.213 0,-12.727z" id="clip_2_"/>
 </g>
</svg>